<svg xmlns="http://www.w3.org/2000/svg" viewBox="0 0 475.42 475.42"><defs><style>.cls-1{fill:#fff;}</style></defs><title>ticket</title><g id="Layer_2" data-name="Layer 2"><g id="Layer_1-2" data-name="Layer 1"><path class="cls-1" d="M103,271.38,271.38,103l101,101L204,372.38ZM364,111.46a35.72,35.72,0,0,0,50.5,0L465,162a35.72,35.72,0,0,1,0,50.5L212.46,465a35.72,35.72,0,0,1-50.5,0l-50.5-50.5A35.71,35.71,0,0,0,61,364l-50.5-50.5a35.7,35.7,0,0,1,0-50.5L263,10.46a35.7,35.7,0,0,1,50.5,0L364,61A35.7,35.7,0,0,0,364,111.46ZM284,82a17.86,17.86,0,0,0-25.25,0L82,258.75A17.86,17.86,0,0,0,82,284L191.42,393.42a17.86,17.86,0,0,0,25.25,0L393.42,216.67a17.86,17.86,0,0,0,0-25.25Z"/></g></g></svg>